<svg width="63" height="18" viewBox="0 0 63 18" fill="none" xmlns="http://www.w3.org/2000/svg">
<path d="M1.00362 17C0.842284 17 0.724951 16.9267 0.651617 16.78C0.578284 16.6187 0.585617 16.4207 0.673617 16.186L5.99762 1.182C6.07095 1.006 6.15162 0.881333 6.23962 0.807999C6.32762 0.719999 6.46695 0.675999 6.65762 0.675999H10.9916C11.373 0.675999 11.637 0.873999 11.7836 1.27L17.0636 16.252C17.1223 16.3987 17.1223 16.56 17.0636 16.736C17.0196 16.912 16.917 17 16.7556 17H12.4436C12.1943 17 12.033 16.8753 11.9596 16.626L11.1016 14.096C11.0723 14.0227 11.0356 13.964 10.9916 13.92C10.9623 13.8613 10.889 13.832 10.7716 13.832H6.10762C5.93162 13.832 5.82162 13.9127 5.77762 14.074L4.87562 16.67C4.84628 16.758 4.78762 16.8387 4.69962 16.912C4.62628 16.9707 4.50895 17 4.34762 17H1.00362ZM9.67162 10.092C9.89162 10.092 9.95762 9.94533 9.86962 9.652L8.54962 5.89C8.52028 5.81667 8.47628 5.78 8.41762 5.78C8.35895 5.78 8.31495 5.81667 8.28562 5.89L6.94362 9.63C6.82628 9.938 6.89962 10.092 7.16362 10.092H9.67162ZM19.1058 17C18.7245 17 18.5338 16.8167 18.5338 16.45V5.846C18.5338 5.50867 18.6732 5.34 18.9518 5.34H22.4938C22.7578 5.34 22.8898 5.48667 22.8898 5.78V6.77C22.8898 6.858 22.9118 6.91667 22.9558 6.946C23.0145 6.97533 23.0878 6.946 23.1758 6.858C23.4838 6.52067 23.8212 6.22 24.1878 5.956C24.5545 5.692 24.9432 5.48667 25.3538 5.34C25.7792 5.19333 26.2192 5.12 26.6738 5.12C27.7005 5.12 28.5292 5.44267 29.1598 6.088C29.8052 6.73333 30.1278 7.59867 30.1278 8.684V16.34C30.1278 16.78 29.9078 17 29.4678 17H26.2338C26.0432 17 25.9112 16.9633 25.8378 16.89C25.7645 16.802 25.7278 16.6553 25.7278 16.45V9.278C25.7278 8.94067 25.6178 8.684 25.3978 8.508C25.1925 8.31733 24.9138 8.222 24.5618 8.222C24.3418 8.222 24.1292 8.266 23.9238 8.354C23.7332 8.42733 23.5572 8.54467 23.3958 8.706C23.2345 8.86733 23.0805 9.07267 22.9338 9.322V16.362C22.9338 16.7873 22.6918 17 22.2078 17H19.1058ZM32.3832 17C32.0018 17 31.8112 16.8167 31.8112 16.45V5.846C31.8112 5.50867 31.9505 5.34 32.2292 5.34H35.7712C36.0352 5.34 36.1672 5.48667 36.1672 5.78V6.77C36.1672 6.858 36.1892 6.91667 36.2332 6.946C36.2918 6.97533 36.3652 6.946 36.4532 6.858C36.7612 6.52067 37.0985 6.22 37.4652 5.956C37.8318 5.692 38.2205 5.48667 38.6312 5.34C39.0565 5.19333 39.4965 5.12 39.9512 5.12C40.9778 5.12 41.8065 5.44267 42.4372 6.088C43.0825 6.73333 43.4052 7.59867 43.4052 8.684V16.34C43.4052 16.78 43.1852 17 42.7452 17H39.5112C39.3205 17 39.1885 16.9633 39.1152 16.89C39.0418 16.802 39.0052 16.6553 39.0052 16.45V9.278C39.0052 8.94067 38.8952 8.684 38.6752 8.508C38.4698 8.31733 38.1912 8.222 37.8392 8.222C37.6192 8.222 37.4065 8.266 37.2012 8.354C37.0105 8.42733 36.8345 8.54467 36.6732 8.706C36.5118 8.86733 36.3578 9.07267 36.2112 9.322V16.362C36.2112 16.7873 35.9692 17 35.4852 17H32.3832ZM51.0725 16.076C50.6765 16.3987 50.2145 16.67 49.6865 16.89C49.1732 17.11 48.5719 17.22 47.8825 17.22C46.7825 17.22 45.9172 16.912 45.2865 16.296C44.6705 15.68 44.3625 14.9173 44.3625 14.008C44.3625 13.1427 44.6339 12.3873 45.1765 11.742C45.7339 11.0967 46.5185 10.598 47.5305 10.246C48.5425 9.87933 49.7379 9.696 51.1165 9.696H51.2705C51.3292 9.696 51.3952 9.68133 51.4685 9.652C51.5565 9.608 51.6005 9.52 51.6005 9.388V9.014C51.6005 8.60333 51.4905 8.288 51.2705 8.068C51.0652 7.848 50.7425 7.738 50.3025 7.738C49.9945 7.738 49.6792 7.81133 49.3565 7.958C49.0339 8.09 48.7772 8.36133 48.5865 8.772C48.5279 8.88933 48.4619 8.97 48.3885 9.014C48.3299 9.04333 48.1979 9.04333 47.9925 9.014L45.1105 8.442C45.0079 8.41267 44.9272 8.36133 44.8685 8.288C44.8245 8.2 44.8539 8.01667 44.9565 7.738C45.2939 6.79933 45.9392 6.132 46.8925 5.736C47.8605 5.32533 49.0632 5.12 50.5005 5.12C51.8645 5.12 52.9279 5.274 53.6905 5.582C54.4532 5.89 54.9885 6.31533 55.2965 6.858C55.6192 7.40067 55.7805 8.03133 55.7805 8.75V16.406C55.7805 16.626 55.7439 16.78 55.6705 16.868C55.6119 16.956 55.4799 17 55.2745 17H52.2605C52.0699 17 51.9305 16.9267 51.8425 16.78C51.7692 16.6187 51.7179 16.4353 51.6885 16.23L51.6665 16.076C51.6225 15.7827 51.4245 15.7827 51.0725 16.076ZM51.6005 12.072C51.6005 11.808 51.4905 11.676 51.2705 11.676H51.1825C51.0065 11.676 50.7719 11.7127 50.4785 11.786C50.1999 11.8447 49.9212 11.9473 49.6425 12.094C49.3639 12.226 49.1219 12.402 48.9165 12.622C48.7259 12.842 48.6305 13.106 48.6305 13.414C48.6305 13.722 48.7405 13.9713 48.9605 14.162C49.1805 14.3527 49.4885 14.448 49.8845 14.448C50.1779 14.448 50.4199 14.404 50.6105 14.316C50.8159 14.228 50.9772 14.1327 51.0945 14.03C51.2265 13.9127 51.3439 13.7953 51.4465 13.678C51.5492 13.546 51.6005 13.3993 51.6005 13.238V12.072ZM62.1219 16.362C62.1219 16.7873 61.8799 17 61.3959 17H58.0959C57.6999 17 57.5019 16.8167 57.5019 16.45V13.062C57.5019 12.7393 57.6412 12.578 57.9199 12.578H61.7259C61.9899 12.578 62.1219 12.7247 62.1219 13.018V16.362Z" fill="black"/>
</svg>
